<?xml version="1.0" encoding="UTF-8"?>
<!-- Generator: visioncortex VTracer 0.6.3 -->
<svg version="1.1" xmlns="http://www.w3.org/2000/svg" width="1280" height="1280">
<path d="M0 0 C422.4 0 844.8 0 1280 0 C1280 422.4 1280 844.8 1280 1280 C857.6 1280 435.2 1280 0 1280 C0 857.6 0 435.2 0 0 Z " fill="#000100" transform="translate(0,0)"/>
<path d="M0 0 C0.66 0 1.32 0 2 0 C3.09 1.71 4.1 3.47 5.06 5.25 C15.78 24.14 30.96 41.62 48 55 C49.71 56.44 51.42 57.87 53.12 59.31 C73.46 75.83 96.19 88.27 119.63 99.77 C129.29 104.51 138.4 109.52 147 116 C147.92 116.68 148.84 117.37 149.79 118.07 C153.99 121.31 157.73 124.71 161.38 128.56 C172.89 140.24 186.15 142.18 201.65 144.37 C224.42 147.62 244.24 150.98 261 168 C262.01 169.01 262.01 169.01 263.04 170.05 C267.28 174.54 270.65 179.4 274 184.56 C283.93 199.8 297.89 209.5 315.83 213.41 C331.94 216.6 331.94 216.6 347 212 C351.66 207.57 355.04 202.68 358 197 C360.71 200.32 363.2 203.72 365.62 207.25 C371.37 215.19 378.61 221.19 386.5 226.91 C388 228 388 228 389 229 C390.42 252.27 385.14 274.35 377 296 C376.73 295.36 376.46 294.72 376.19 294.06 C375.11 291.67 375.11 291.67 372 291 C370.46 288.63 370.46 288.63 368.81 285.56 C359.59 269.28 348 259.83 329.88 254.81 C295.34 245.9 261.22 251.26 226.75 258 C169.88 269.05 112.75 273.84 59.85 245.97 C56.59 244.27 53.29 242.64 50 241 C50 240.34 50 239.68 50 239 C50.76 238.94 51.51 238.88 52.29 238.82 C76.69 236.83 100.77 233.57 123.89 225.1 C127 224 127 224 129 224 C129 223.34 129 222.68 129 222 C89.55 210.75 48.52 215.62 12.62 235.38 C-10.58 248.65 -28.83 268.31 -36.28 294.29 C-42.9 319.08 -41.28 343.45 -28.75 366.19 C-25.14 372.11 -20.89 377.1 -16 382 C-15 383.01 -15 383.01 -13.99 384.05 C-3.32 394.2 10.43 401.53 24 407 C24.67 407.27 25.35 407.55 26.04 407.83 C50.24 417.36 76.89 421.12 102.26 426.37 C230.03 452.85 230.03 452.85 264 485 C265.31 486.11 266.62 487.21 267.94 488.31 C295.18 512.15 313.99 547.27 319 583 C319.13 583.91 319.26 584.82 319.39 585.76 C319.71 588.51 319.88 591.23 320 594 C320.03 594.64 320.05 595.27 320.08 595.93 C321.4 631.87 311.97 667.96 292 698 C291.6 698.61 291.2 699.22 290.78 699.84 C281.71 713.42 270.92 725.24 259.44 736.81 C258.58 737.68 257.71 738.56 256.82 739.45 C205.13 790.89 128.95 815.81 57 817 C56 817.02 55 817.04 53.97 817.06 C21.09 817.65 -10.59 813.94 -43 809 C-50.26 807.9 -57.52 806.8 -64.77 805.71 C-67.71 805.27 -70.64 804.81 -73.58 804.36 C-90.78 801.73 -108.01 799.6 -125.44 799.69 C-126.66 799.69 -127.89 799.7 -129.16 799.7 C-175.28 800.31 -217.87 818.09 -251 850 C-251.78 850.71 -252.55 851.43 -253.35 852.16 C-260.25 858.68 -265.59 866.24 -271 874 C-271.96 875.34 -271.96 875.34 -272.94 876.71 C-279.83 886.84 -284.57 898.61 -289 910 C-289.66 910 -290.32 910 -291 910 C-298.55 894.91 -288.52 864.02 -283.73 848.87 C-276.69 828.03 -265.05 809.9 -250 794 C-249.18 793.12 -248.36 792.23 -247.52 791.32 C-237.51 780.87 -226.01 772.36 -213 766 C-212.31 765.66 -211.63 765.31 -210.92 764.96 C-189.27 754.17 -167.01 748.09 -143 745 C-146.27 740.81 -149.73 737.35 -153.77 733.91 C-156.16 731.86 -158.49 729.75 -160.81 727.62 C-164.2 724.56 -167.67 721.65 -171.25 718.81 C-181.03 710.89 -189.95 701.67 -198 692 C-198.74 691.14 -199.49 690.27 -200.25 689.38 C-254.55 625.5 -276.64 537.38 -270.46 454.75 C-264.28 385.92 -240.13 307.14 -189 258 C-187.67 256.99 -186.34 255.99 -185 255 C-186.48 260.54 -188 266.07 -189.68 271.55 C-196.47 293.73 -200.23 315.26 -200.25 338.44 C-200.25 339.19 -200.25 339.95 -200.25 340.73 C-200.24 352.39 -199.67 363.61 -197 375 C-196.73 376.17 -196.73 376.17 -196.46 377.37 C-193.94 388.33 -190.64 398.75 -186 409 C-185.57 409.96 -185.57 409.96 -185.13 410.94 C-168.12 448.26 -136.03 477.07 -100.78 496.99 C-99.05 497.97 -97.33 498.97 -95.61 499.98 C-53.26 524.12 -3.65 530.34 43.86 536.57 C44.86 536.7 45.85 536.83 46.87 536.97 C51.67 537.6 56.47 538.22 61.27 538.82 C70.16 539.95 78.96 541.27 87.75 543.01 C88.54 543.16 89.34 543.32 90.16 543.48 C110.24 547.61 128.39 555.66 144 569 C144.67 569.57 145.35 570.14 146.04 570.73 C160.72 584.3 170.17 605.12 171.2 624.88 C171.59 645.07 165.93 661.18 155 678 C153.03 675.04 152.69 674.02 152.32 670.64 C152.22 669.78 152.12 668.92 152.01 668.03 C151.91 667.11 151.8 666.2 151.69 665.25 C148.54 641.42 137.33 620.07 119.02 604.28 C100.21 590.08 77.14 587.14 54.21 586.17 C51.8 586.07 49.39 585.95 46.98 585.84 C40.14 585.51 33.31 585.2 26.47 584.9 C-26.31 582.57 -77.77 575.28 -125 550 C-126.13 549.4 -127.27 548.8 -128.43 548.18 C-147.79 537.5 -164.97 524.14 -181 509 C-181.49 508.54 -181.98 508.09 -182.49 507.61 C-195.13 495.79 -205.43 482.02 -214 467 C-214.81 465.58 -214.81 465.58 -215.64 464.14 C-218.74 458.6 -221.44 452.96 -223.92 447.12 C-224.81 444.84 -224.81 444.84 -227 444 C-222.95 491.48 -213.65 532.3 -180 568 C-179.35 568.71 -178.7 569.43 -178.04 570.16 C-147.76 602.18 -100.74 622.52 -57 624 C-39.36 624.48 -22.04 623.4 -4.54 621.2 C26.97 617.29 59.33 615.69 87 634 C104.56 647.69 116.34 666.07 120.59 688.03 C121.19 693.83 121.18 699.61 121.19 705.44 C121.2 706.63 121.21 707.82 121.22 709.04 C121.25 724.75 116 732.9 105 744 C96.91 751 96.91 751 95 751 C95.03 750.41 95.06 749.83 95.1 749.22 C95.8 734.01 94.05 721.34 89 707 C88.58 705.73 88.16 704.46 87.73 703.19 C82.96 689.7 75.42 678.33 63 671 C53.71 666.77 44.1 664.62 33.91 664.69 C33.06 664.7 32.21 664.7 31.33 664.7 C20.58 664.88 10 666.42 -0.62 667.94 C-3.67 668.36 -6.71 668.77 -9.76 669.19 C-11.63 669.45 -13.5 669.71 -15.37 669.97 C-27.02 671.61 -38.42 672.24 -50.19 672.25 C-50.98 672.25 -51.78 672.25 -52.6 672.25 C-103.57 672.18 -147.79 654.31 -188.84 624.93 C-191.82 622.81 -194.81 620.81 -198 619 C-189.86 641.86 -172.91 660.12 -156 677 C-155.41 677.62 -154.82 678.25 -154.22 678.89 C-141.72 691.98 -125.91 701.36 -110.24 710.16 C-107.42 711.76 -104.64 713.42 -101.88 715.12 C-97.54 717.75 -93.07 720.01 -88.52 722.24 C-84.21 724.39 -79.95 726.63 -75.69 728.88 C-74.87 729.31 -74.05 729.74 -73.21 730.18 C-68.84 732.49 -64.49 734.81 -60.14 737.15 C-38.46 749.52 -38.46 749.52 -15 757 C-18.96 751.56 -18.96 751.56 -23 746 C-22.34 745.34 -21.68 744.68 -21 744 C-20.51 744.33 -20.01 744.66 -19.51 745.01 C-14.02 748.7 -8.52 752.36 -3 756 C-1.95 756.69 -0.9 757.38 0.18 758.1 C1 758.62 1.83 759.15 2.69 759.69 C3.71 760.34 3.71 760.34 4.76 761.01 C10.46 763.53 17.04 763.16 23.17 763.17 C24.04 763.17 24.92 763.17 25.82 763.18 C27.67 763.18 29.52 763.19 31.37 763.19 C34.13 763.19 36.89 763.21 39.65 763.22 C64.99 763.31 89.6 759.79 114 753 C114.73 752.8 115.45 752.6 116.2 752.4 C136.73 746.61 156.9 736.75 174 724 C175.26 723.08 175.26 723.08 176.54 722.14 C182.34 717.79 187.69 712.94 193 708 C193.68 707.39 194.36 706.77 195.06 706.14 C201.38 700.19 206.2 693.2 211 686 C211.64 685.04 212.28 684.08 212.95 683.1 C227.81 659.33 232.07 629.04 226.04 601.8 C220.63 582.05 211.64 564.64 197.43 549.71 C196 548 196 548 196 546 C195.43 545.76 194.87 545.51 194.28 545.26 C191.6 543.78 189.71 541.99 187.5 539.88 C172.77 526.53 154.8 518.81 135.93 513.08 C134.81 512.74 133.69 512.39 132.54 512.04 C121.37 508.7 110.08 506.04 98.71 503.53 C95.06 502.72 91.41 501.9 87.76 501.08 C78.97 499.1 70.17 497.15 61.37 495.19 C-31.36 474.59 -31.36 474.59 -62 458 C-63.03 457.45 -64.06 456.9 -65.12 456.33 C-102.47 435.47 -133.92 401.07 -146.44 359.81 C-147.35 356.56 -148.19 353.29 -149 350 C-149.18 349.32 -149.35 348.64 -149.53 347.94 C-154.9 326.55 -154.25 299.34 -149 278 C-148.8 277.16 -148.59 276.32 -148.38 275.45 C-145.55 264.12 -141.92 253.35 -136.87 242.82 C-136.03 241.06 -135.22 239.28 -134.42 237.5 C-129.27 226.5 -122.35 216.5 -114.64 207.13 C-112.8 205.18 -112.8 205.18 -113 203 C-119.55 202.89 -125.86 203.29 -132.36 204.06 C-133.79 204.22 -133.79 204.22 -135.26 204.39 C-137.26 204.62 -139.26 204.85 -141.26 205.08 C-144.32 205.44 -147.38 205.79 -150.45 206.13 C-152.4 206.36 -154.35 206.58 -156.3 206.81 C-157.67 206.96 -157.67 206.96 -159.07 207.12 C-159.92 207.22 -160.77 207.32 -161.65 207.43 C-162.77 207.56 -162.77 207.56 -163.91 207.69 C-165.99 208 -167.97 208.46 -170 209 C-167.25 204.57 -164.24 200.96 -160.38 197.44 C-159.82 196.93 -159.26 196.42 -158.68 195.89 C-146.68 185.18 -133.29 176.34 -119 169 C-118.29 168.63 -117.58 168.26 -116.84 167.88 C-69.02 143.21 -14.21 138.44 37 154.55 C43.8 156.75 50.45 159.11 57 162 C57 162.66 57 163.32 57 164 C58.65 164.33 60.3 164.66 62 165 C59.12 165.83 56.64 166.1 53.65 166.03 C52.81 166.01 51.96 166 51.1 165.99 C50.2 165.97 49.3 165.95 48.38 165.94 C8.22 165.65 -28.63 179.83 -59 206 C-59.78 206.64 -60.56 207.29 -61.36 207.95 C-67.36 213.05 -72.22 218.76 -77 225 C-77.79 226.02 -78.59 227.03 -79.4 228.08 C-91.5 243.99 -99.6 261.83 -105 281 C-105.54 282.83 -105.54 282.83 -106.09 284.7 C-113.29 313.77 -106.44 344.98 -91.36 370.3 C-88.05 375.62 -84.21 380.37 -80 385 C-79.4 385.68 -78.8 386.36 -78.18 387.06 C-69.97 395.86 -59.32 402.89 -49 409 C-49.65 408.03 -50.3 407.07 -50.98 406.07 C-53.26 402.68 -55.52 399.28 -57.77 395.87 C-58.76 394.37 -59.75 392.87 -60.75 391.38 C-77.74 364.72 -83.66 327.93 -77.55 297.1 C-69.56 261.93 -50.37 232.12 -21 211 C-19.98 210.26 -18.95 209.52 -17.9 208.75 C4.18 193.69 30.61 184.54 57 181 C57.67 180.91 58.34 180.81 59.02 180.72 C65.61 179.87 72.17 179.81 78.81 179.81 C80.58 179.81 80.58 179.81 82.39 179.81 C93.82 179.89 105.88 180.06 117 183 C99.62 151.38 73.02 144.54 40.44 134.5 C9.5 124.95 -20.49 114.59 -46 94 C-46.53 93.58 -47.05 93.16 -47.59 92.73 C-61.06 81.95 -75.56 68.39 -82 52 C-81.67 51.01 -81.34 50.02 -81 49 C-80.56 49.36 -80.13 49.71 -79.68 50.08 C-39.88 82.4 22.04 114.82 75 113 C72.71 109.71 70.24 107.32 67.06 104.94 C60.64 100.06 54.82 94.57 49 89 C48.29 88.32 47.57 87.64 46.83 86.94 C21.97 63.12 3.71 35.03 0 0 Z " fill="#60EF82" transform="translate(565,175)"/>
<path d="M0 0 C3.73 1.37 6.85 3.11 10.19 5.25 C25.86 14.39 43.23 16.81 61 19 C62.1 19.14 63.19 19.27 64.32 19.41 C77.88 21.03 91.45 22.12 105.08 23.02 C152.65 26.15 201.49 31.63 244.82 52.93 C246.94 53.97 249.08 54.98 251.21 55.99 C281.62 70.52 309.66 93.32 329 121 C329.41 121.58 329.82 122.16 330.24 122.76 C347.34 147.21 361.49 175.22 366 205 C366.1 205.66 366.2 206.32 366.3 207 C372.76 251.73 365.29 299.31 339.12 336.75 C332.53 345.49 324.83 353.37 317 361 C316.2 361.8 315.39 362.61 314.56 363.44 C314.05 363.95 313.53 364.47 313 365 C314.26 360.46 315.65 356.01 317.21 351.56 C322.51 336.21 327.27 321.06 330 305 C330.19 303.88 330.19 303.88 330.39 302.74 C338.59 252.42 324.45 203.59 295.55 162.46 C293.43 159.58 291.25 156.78 289 154 C288.59 153.49 288.17 152.97 287.74 152.44 C276.27 138.27 263.75 126.73 249 116 C248.17 115.38 247.33 114.77 246.48 114.13 C239.51 109.2 231.69 105.65 224 102 C223.29 101.66 222.58 101.32 221.85 100.98 C189.6 85.7 155.05 79.91 120.15 74.02 C48.18 61.86 48.18 61.86 22 36 C21.15 35.21 20.3 34.42 19.42 33.61 C10.08 24.72 3.44 14.14 -1 2 C-0.67 1.34 -0.34 0.68 0 0 Z " fill="#60EF82" transform="translate(610,474)"/>
<path d="M0 0 C6.52 6.23 12.26 13.53 13.18 22.76 C13.3 33.38 10.46 39.62 3.24 47.26 C-1.61 52.08 -6.87 55.61 -12.78 59.01 C-15.91 60.76 -15.91 60.76 -19.08 62.98 C-21.82 64.76 -21.82 64.76 -23.82 64.76 C-24.95 61.36 -24.51 59.23 -23.82 55.76 C-22.93 43.72 -25.08 34.85 -32.53 25.24 C-42.27 14.69 -58.93 11.27 -72.79 10.68 C-74.92 10.63 -77.06 10.62 -79.19 10.62 C-79.98 10.62 -80.76 10.62 -81.57 10.62 C-88.92 10.68 -96.17 11.31 -103.48 12.05 C-140.13 15.62 -176.16 15.55 -211.82 5.76 C-211.49 5.1 -211.16 4.44 -210.82 3.76 C-205.98 2.93 -201.18 2.64 -196.28 2.47 C-183.35 2.02 -170.63 0.41 -157.82 -1.3 C-156.67 -1.45 -155.53 -1.6 -154.34 -1.76 C-130.93 -4.83 -107.59 -8.36 -84.28 -12.08 C-56.57 -16.48 -23.29 -18.48 0 0 Z " fill="#61F083" transform="translate(907.8203125,455.23828125)"/>
<path d="M0 0 C8.11 -0.52 14.8 0.6 21.27 5.84 C28.59 12.92 33.17 19.97 33.38 30.32 C33.34 46.84 27.95 59.41 16.62 71.55 C6.98 80.58 -5.85 88.64 -19 91 C-19.99 90.67 -20.98 90.34 -22 90 C-21.6 89.66 -21.19 89.31 -20.78 88.96 C1.54 71.06 1.54 71.06 13.45 46.1 C13.7 39.88 12.75 35.97 9 31 C4.78 27.09 1.7 25.86 -4 25.88 C-4.87 25.87 -5.73 25.87 -6.62 25.87 C-9.15 25.9 -9.15 25.9 -12 27 C-12.43 27.69 -12.86 28.37 -13.31 29.08 C-14.15 30.03 -14.15 30.03 -15 31 C-17.79 31.14 -17.79 31.14 -21.06 30.69 C-26.73 30.07 -32.43 29.49 -38 31 C-38.49 31.51 -38.98 32.01 -39.49 32.53 C-41 34 -41 34 -43.19 34.33 C-44.37 34.29 -44.37 34.29 -45.56 34.25 C-46.35 34.23 -47.13 34.22 -47.94 34.2 C-50 34 -50 34 -52 33 C-54.19 33.06 -56.38 33.2 -58.56 33.38 C-59.74 33.47 -60.92 33.56 -62.13 33.65 C-64.89 33.69 -64.89 33.69 -66 35 C-68.33 34.67 -70.67 34.34 -73 34 C-75.65 33.93 -78.29 33.91 -80.94 33.94 C-81.96 33.94 -81.96 33.94 -83.01 33.95 C-84.67 33.96 -86.34 33.98 -88 34 C-86.81 37.58 -85.32 38.44 -82.06 40.19 C-78.52 41.58 -75.15 41.49 -71.4 41.4 C-69.76 41.4 -68.12 41.41 -66.48 41.41 C-63.92 41.4 -61.36 41.37 -58.8 41.34 C-56.31 41.31 -53.82 41.32 -51.34 41.34 C-50.57 41.31 -49.81 41.29 -49.03 41.27 C-46.08 41.3 -43.72 41.42 -41.37 43.31 C-38 47.2 -38 47.2 -38 50 C-40.38 49.08 -42.68 48.18 -44.91 46.94 C-47.21 45.91 -48.65 45.78 -51.15 45.84 C-52.36 45.86 -52.36 45.86 -53.6 45.88 C-54.47 45.9 -55.33 45.92 -56.23 45.95 C-58.08 45.97 -59.94 46 -61.79 46.02 C-64.7 46.07 -67.61 46.12 -70.52 46.19 C-91.38 46.64 -91.38 46.64 -99 42 C-99.59 41.66 -100.19 41.31 -100.8 40.96 C-102.44 39.94 -104.03 38.85 -105.62 37.75 C-110.59 34.42 -115.62 31.55 -121 28.94 C-144.48 17.47 -144.48 17.47 -152 9 C-152 8.34 -152 7.68 -152 7 C-148.03 7.84 -144.33 9.36 -140.56 10.81 C-135.42 12.78 -130.29 14.57 -125 16.12 C-119.15 17.87 -114.01 20.08 -108.87 23.36 C-103.77 26.52 -100.27 27.49 -94.26 26.98 C-92 27 -92 27 -90.06 27.98 C-84.04 30.97 -75.17 28.98 -68.67 28.22 C-63.46 27.79 -58.23 27.93 -53 28 C-52.74 27.04 -52.47 26.09 -52.2 25.11 C-51 22 -51 22 -47.81 20.31 C-43.28 19.94 -42.56 21.02 -39.23 23.8 C-34.42 26.39 -28.27 25.77 -23 25 C-21.63 24.04 -20.3 23.05 -19 22 C-17 21.74 -17 21.74 -15 21.88 C-12.88 22 -11.2 22.05 -9.14 21.52 C-0.91 19.51 7.3 20.87 15 24 C14.84 16.84 11.32 11.56 7 6 C5.37 4.62 3.71 3.28 2 2 C1.01 1.01 1.01 1.01 0 0 Z " fill="#60EF82" transform="translate(1098,582)"/>
<path d="M0 0 C6.56 0.9 6.56 0.9 9.31 1.52 C12.5 2.09 15.54 2.16 18.78 2.21 C20.1 2.24 21.42 2.27 22.78 2.3 C24.84 2.34 26.91 2.37 28.97 2.4 C45.78 2.64 62.99 4.85 75.62 17.06 C83 25.21 83 25.21 83 29 C84.98 29.5 84.98 29.5 87 30 C86.6 22.85 84.17 17.37 81 11 C85.05 11 85.84 12.37 88.69 15.19 C104.98 32.05 110.68 52.27 110.32 75.08 C109.9 86.06 106.36 95.46 101 105 C99.82 101.47 100.11 99.14 100.44 95.44 C102.28 71.76 96.87 53.58 81.31 35.25 C68.12 21.29 51.61 17.25 33.28 15.08 C19.96 13.46 10.43 9.29 0 1 C0 0.67 0 0.34 0 0 Z " fill="#60EF82" transform="translate(1035,525)"/>
<path d="M0 0 C8.57 0.99 16.99 2.59 25.46 4.22 C27.31 4.57 29.16 4.92 31.02 5.26 C49.37 8.64 63.92 12.83 76 28 C71.83 32.96 65.16 34.08 59 35 C54.94 35.35 50.89 35.46 46.81 35.5 C45.82 35.52 44.82 35.54 43.79 35.56 C30.66 35.45 21 30.04 11.25 21.62 C6.21 15.74 0 8.07 0 0 Z " fill="#000100" transform="translate(736,357)"/>
<path d="M0 0 C1.24 0.24 2.49 0.49 3.77 0.74 C7.07 1.65 9.34 2.83 12.19 4.69 C13.24 5.06 14.29 5.43 15.38 5.81 C24.06 9.45 30.82 18.24 37.16 24.91 C42.78 30.24 48.03 35.09 56.09 35.31 C58.25 35.24 60.4 35.12 62.55 34.98 C64.27 34.91 64.27 34.91 66.03 34.84 C69.67 34.7 73.3 34.51 76.94 34.31 C80.59 34.12 84.24 33.95 87.89 33.8 C90.16 33.71 92.42 33.6 94.68 33.45 C103.19 33.1 103.19 33.1 106.93 36.06 C109.19 38.69 109.19 38.69 109.19 40.69 C109.85 40.69 110.51 40.69 111.19 40.69 C111.19 41.35 111.19 42.01 111.19 42.69 C108.64 42.22 107.07 41.61 104.89 40.16 C101.8 38.48 100.12 38.36 96.64 38.47 C95.01 38.51 95.01 38.51 93.34 38.55 C92.17 38.59 91 38.63 89.79 38.68 C87.28 38.72 84.78 38.77 82.27 38.81 C78.34 38.9 74.4 39 70.47 39.13 C52.4 39.68 39.31 39.26 25.03 27.46 C24.04 26.49 23.07 25.51 22.12 24.5 C9.9 12.14 -1.67 10.39 -18.79 8.96 C-27.88 8.08 -35.69 5.88 -43.81 1.69 C-43.81 1.03 -43.81 0.37 -43.81 -0.31 C-39.69 -0.48 -35.56 -0.65 -31.44 -0.81 C-30.28 -0.86 -29.12 -0.91 -27.93 -0.96 C-8.46 -1.73 -8.46 -1.73 0 0 Z " fill="#60EF82" transform="translate(985.8125,534.3125)"/>
<path d="M0 0 C2.65 2.22 3.88 3.85 4.25 7.34 C4.25 9.57 4.17 11.77 4 14 C4.55 14.25 5.11 14.51 5.68 14.77 C6.4 15.11 7.13 15.46 7.88 15.81 C8.59 16.15 9.31 16.49 10.05 16.83 C12 18 12 18 14 21 C14.19 22.05 14.37 23.1 14.56 24.19 C15.96 29.59 20.75 32.75 25 36 C28.12 37.56 31.38 36.97 34.79 36.85 C36.39 36.81 37.98 36.78 39.58 36.75 C42.1 36.69 44.61 36.63 47.13 36.53 C62.9 35.93 62.9 35.93 67.81 40.22 C68.91 41.45 69.97 42.71 71 44 C71.96 44.86 72.91 45.73 73.9 46.62 C75.57 48.14 77.23 49.66 78.9 51.18 C83.12 54.84 87.33 54.29 92.74 54.52 C97.37 55.2 100.07 57.3 103.75 60.06 C107.26 62.16 110.06 62.81 114.05 63.41 C116 64 116 64 118 67 C110.11 67.42 105.59 67.53 99 63 C96.88 62.8 94.75 62.69 92.62 62.62 C85.8 62.24 82.84 60.66 78 56 C76.83 54.91 75.65 53.83 74.47 52.75 C72.55 50.98 70.64 49.2 68.75 47.41 C68.16 46.85 67.58 46.3 66.98 45.73 C66.45 45.23 65.93 44.73 65.39 44.21 C61.96 41.22 58.33 42.03 54.06 42.22 C52.43 42.27 50.79 42.31 49.16 42.35 C46.59 42.42 44.02 42.5 41.45 42.62 C25.38 43.38 25.38 43.38 19 37.66 C17.63 36.14 16.29 34.59 15 33 C12.19 30.02 9.49 28.75 5.74 27.16 C4 26 4 26 3.32 24.06 C3.21 23.38 3.11 22.7 3 22 C2.35 20 1.68 18 1 16 C0.67 15.01 0.34 14.02 0 13 C-0.91 13.06 -1.82 13.12 -2.75 13.19 C-6.29 12.98 -7.45 12.35 -10 10 C-9.51 3.57 -9.51 3.57 -7.25 1.06 C-4.48 -0.25 -3.02 -0.6 0 0 Z " fill="#61F083" transform="translate(937,478)"/>
<path d="M0 0 C0.92 -0.01 1.83 -0.02 2.77 -0.04 C3.65 -0.04 4.53 -0.04 5.44 -0.04 C6.24 -0.05 7.04 -0.05 7.87 -0.06 C10 0.19 10 0.19 13 2.19 C-0.36 12.73 -14.66 19.74 -32 18.19 C-41.37 16.88 -49.62 14.6 -58 10.19 C-58 9.53 -58 8.87 -58 8.19 C-56.8 8.04 -56.8 8.04 -55.58 7.89 C-49.72 7.09 -44.31 6.08 -38.75 4.06 C-33.5 2.21 -29.54 1.48 -24 2.19 C-21.94 4.19 -21.94 4.19 -21 6.19 C-18.78 5.16 -16.89 4.11 -14.94 2.62 C-10.45 -0.71 -5.33 0 0 0 Z " fill="#61F083" transform="translate(1066,639.8125)"/>
<path d="M0 0 C13.91 3.91 23.08 21.31 29.88 32.98 C38.14 47.85 42.18 63.41 42.19 80.31 C42.2 81.29 42.21 82.28 42.22 83.29 C42.24 89.76 41.53 95.71 40 102 C39.67 102 39.34 102 39 102 C38.81 100.68 38.81 100.68 38.62 99.33 C33.61 64.56 24.78 36.33 3.86 7.56 C3.36 6.86 2.86 6.17 2.34 5.46 C1.89 4.84 1.44 4.22 0.97 3.58 C0 2 0 2 0 0 Z " fill="#000100" transform="translate(796,696)"/>
<path d="M0 0 C0.59 0.48 1.19 0.97 1.8 1.47 C4.53 3.37 6.46 3.46 9.75 3.75 C15.46 4.56 18.29 6.28 22.31 10.32 C24.32 12.32 26.55 13.59 29 15 C29.49 15.99 29.49 15.99 30 17 C25.84 17.74 23.94 17.63 20.37 15.22 C19.44 14.49 18.52 13.75 17.56 13 C12.95 9.35 12.95 9.35 7.31 8.5 C6.22 8.66 5.13 8.83 4 9 C3.71 9.62 3.42 10.24 3.12 10.88 C2 13 2 13 0 15 C-1.94 14.89 -1.94 14.89 -4.34 14.48 C-10.73 13.7 -16.34 14.96 -22.56 16.38 C-34.44 18.97 -45.7 20.15 -57.83 20.61 C-62.22 20.78 -66.62 20.99 -71 21.34 C-72.05 21.42 -72.05 21.42 -73.12 21.51 C-75.13 21.86 -75.13 21.86 -76.52 23.56 C-77.01 24.04 -77.5 24.51 -78 25 C-81.69 24.69 -81.69 24.69 -85 24 C-86.19 21.81 -86.19 21.81 -87 19 C-85.81 16.09 -84.93 14.5 -82.12 13 C-80 13 -80 13 -77.82 14.48 C-63.58 22.15 -33.43 14.61 -18.45 10.8 C-15 10 -15 10 -11 10 C-10.81 8.61 -10.81 8.61 -10.62 7.19 C-10 4 -10 4 -8 1 C-4.98 -0.01 -3.14 -0.31 0 0 Z " fill="#61F083" transform="translate(1073,580)"/>
<path d="M0 0 C0.56 0.71 1.11 1.41 1.68 2.14 C12.71 15.77 24.19 24.55 40 32 C44.13 33.96 47.95 35.88 51.62 38.62 C55.72 41.65 59.49 42.84 64.56 43.38 C68.48 44.09 70.03 45.45 73 48 C48.31 47.63 30.03 43.98 12.35 25.88 C5.41 18.45 1.4 10.88 -1 1 C-0.67 0.67 -0.34 0.34 0 0 Z " fill="#60EF82" transform="translate(929,540)"/>
<path d="M0 0 C2.31 0.19 2.31 0.19 5 1 C6.62 3.44 6.62 3.44 8 6 C11.7 8.47 13.62 8.47 18 8 C19.05 6.7 20.05 5.37 21 4 C23.88 3.06 23.88 3.06 27 3 C28.68 3.97 30.35 4.98 32 6 C34.68 6.55 37.27 6.77 40 7 C40 6.34 40 5.68 40 5 C46.62 3.75 46.62 3.75 50 6 C50 6.66 50 7.32 50 8 C51.2 7.84 52.39 7.67 53.62 7.5 C55.42 7.33 57.21 7.16 59 7 C60.11 6.87 61.22 6.75 62.36 6.62 C71.48 6 71.48 6 75.95 8.94 C78.56 11.38 78.56 11.38 80.82 13.84 C83.66 16.65 86.32 17.66 90.19 18.44 C92 19 92 19 94 22 C93.46 26.54 93.46 26.54 92 28 C88.62 27.88 88.62 27.88 85 27 C83.44 24.88 83.44 24.88 82 22 C81.08 20.76 80.11 19.56 79.12 18.38 C78.65 17.81 78.18 17.24 77.7 16.65 C73.25 12.32 69.68 11.63 63.65 11.64 C62.75 11.65 61.86 11.67 60.94 11.69 C60.04 11.68 59.14 11.68 58.22 11.68 C53.8 11.71 50.93 11.91 47 14 C43.22 14.37 42.27 14.18 39 12 C36.04 11.5 36.04 11.5 33 12 C32.34 12.66 31.68 13.32 31 14 C29 16 29 16 25.94 16.38 C23 16 23 16 20 14 C18.5 13.91 17 13.87 15.5 13.88 C8.62 13.38 4.13 9.28 -1 5 C-0.67 3.35 -0.34 1.7 0 0 Z " fill="#5CE67D" transform="translate(1025,548)"/>
<path d="M0 0 C0.63 0.39 1.26 0.77 1.9 1.17 C4.1 2.42 4.1 2.42 6.98 2.59 C10.97 3.44 12.6 5.16 15.5 8 C16.46 8.9 17.42 9.8 18.41 10.73 C19.28 11.56 20.16 12.39 21.06 13.25 C25.29 17.16 28.29 18.42 34.06 19.12 C39.59 19.83 42.12 21.34 45.66 25.59 C47.88 28.22 49.69 29.19 53.06 29.75 C56.06 30.25 56.06 30.25 59.06 32.25 C61.02 32.56 61.02 32.56 63.15 32.52 C63.94 32.52 64.72 32.52 65.53 32.52 C66.34 32.52 67.16 32.51 68 32.5 C68.81 32.51 69.62 32.52 70.46 32.52 C71.24 32.52 72.03 32.52 72.84 32.52 C73.91 32.51 73.91 32.51 75 32.51 C77.37 32.21 78.96 31.33 81.06 30.25 C83.69 30.44 83.69 30.44 86.06 31.25 C88.06 34.25 88.06 34.25 87.75 36.81 C87.06 39.25 87.06 39.25 86.06 41.25 C81.45 40.61 81.45 40.61 79.43 38.73 C75.88 36.51 72.59 36.85 68.5 36.94 C67.73 36.93 66.96 36.93 66.17 36.93 C62.3 36.96 60.35 37.06 57.06 39.25 C53.88 40.06 53.88 40.06 50.06 39.25 C47.76 36.66 45.92 33.97 44.05 31.05 C41.96 28.1 40.09 26.22 37.06 24.25 C34.71 23.82 34.71 23.82 32.31 23.94 C24.96 23.46 20.87 18.88 15.71 14.04 C11.24 9.81 11.24 9.81 5.81 7.06 C2.5 7.29 0.86 8.53 -1.94 10.25 C-5.47 10 -6.94 9.25 -9.94 7.25 C-9.7 3.61 -9.45 1.78 -6.88 -0.88 C-3.45 -1.89 -3.02 -1.59 0 0 Z " fill="#60EF82" transform="translate(967.9375,549.75)"/>
<path d="M0 0 C-33.67 34.05 -33.67 34.05 -54.61 34.19 C-56.01 34.19 -56.01 34.19 -57.44 34.19 C-58.83 34.21 -58.83 34.21 -60.25 34.22 C-65.24 34.24 -69.32 33.98 -74 32 C-73.67 31.34 -73.34 30.68 -73 30 C-71.81 29.96 -70.62 29.93 -69.39 29.89 C-67.82 29.82 -66.25 29.75 -64.69 29.69 C-63.9 29.66 -63.12 29.64 -62.31 29.62 C-61.17 29.57 -61.17 29.57 -60.01 29.51 C-59.32 29.49 -58.62 29.46 -57.9 29.43 C-55.49 28.88 -54.65 27.79 -53 26 C-50.47 25.08 -50.47 25.08 -47.5 24.25 C-40.87 22.14 -35.68 18.96 -30 15 C-28.9 14.24 -27.8 13.48 -26.7 12.72 C-25.02 11.56 -23.33 10.39 -21.65 9.21 C-8.16 -0.18 -8.16 -0.18 0 0 Z " fill="#60EF82" transform="translate(1100,640)"/>
<path d="M0 0 C1.11 0.68 1.11 0.68 2.25 1.38 C7.89 4.81 12.51 5.1 19.06 5.07 C19.88 5.07 20.7 5.06 21.54 5.06 C29.25 5.02 36.95 4.66 44.65 4.21 C45.54 4.16 46.43 4.11 47.34 4.06 C48.13 4.02 48.92 3.97 49.74 3.92 C51.68 3.94 51.68 3.94 53.68 4.94 C53.68 5.6 53.68 6.26 53.68 6.94 C52.59 6.96 52.59 6.96 51.47 6.98 C42.77 7.38 35.07 9.3 26.75 11.79 C15.63 15.05 5 15.38 -5.64 10.45 C-9.37 8.35 -12.25 5.94 -15.32 2.94 C-10.4 -0.33 -5.72 -2.62 0 0 Z " fill="#61F083" transform="translate(995.31640625,629.05859375)"/>
<path d="M0 0 C2.6 2.42 2.98 3.6 3.12 7.19 C3.08 8.12 3.04 9.04 3 10 C4 11.24 4 11.24 6.01 11 C6.87 10.95 7.74 10.9 8.63 10.85 C9.58 10.82 10.54 10.78 11.52 10.75 C13.52 10.67 15.52 10.56 17.53 10.43 C22.9 10.28 26.18 10.56 30.31 14.17 C31.56 15.43 32.79 16.71 34 18 C35.11 18.98 36.24 19.96 37.37 20.91 C38.39 21.82 39.42 22.72 40.44 23.62 C40.97 24.08 41.49 24.53 42.04 24.99 C45.19 27.81 46.7 29.73 47 34 C41.24 31 36.97 26.39 32.35 21.92 C31.71 21.3 31.06 20.69 30.4 20.05 C29.82 19.49 29.24 18.93 28.64 18.35 C25.67 15.9 22.96 15.9 19.29 16.01 C18.37 16.02 17.46 16.04 16.52 16.06 C14.6 16.1 12.68 16.15 10.76 16.21 C5.56 16.3 2.3 16.23 -2 13 C-4 12.64 -6 12.31 -8 12 C-8.99 11.34 -9.98 10.68 -11 10 C-11.44 6.61 -11.39 4.68 -9.69 1.69 C-6.6 -1.4 -3.94 -1.28 0 0 Z " fill="#61F083" transform="translate(981,493)"/>
<path d="M0 0 C2.31 1.56 2.31 1.56 4 4 C4.47 8.42 4.11 11.15 2 15 C3.12 16.15 4.25 17.29 5.38 18.44 C6 19.08 6.63 19.71 7.27 20.37 C11.28 24.15 16.58 23.31 21.79 23.43 C27.61 23.67 27.61 23.67 29.75 25.47 C31 27 31 27 31 28 C12.79 29.47 12.79 29.47 6.73 26.28 C4.29 23.98 2.17 21.55 0 19 C-1.83 17.53 -3.68 16.09 -5.56 14.69 C-9.77 11.56 -9.77 11.56 -10.86 8.93 C-11.08 5.93 -9.74 4.37 -8 2 C-4.75 -0.17 -3.77 -0.55 0 0 Z " fill="#61F083" transform="translate(1048,494)"/>
<path d="M0 0 C2.94 0.44 2.94 0.44 4.81 2 C6.37 5.37 6.4 7.77 5.94 11.44 C4.31 13.44 4.31 13.44 1.94 14.44 C-2.26 14.26 -5.01 13.37 -8.06 10.44 C-8.06 9.78 -8.06 9.12 -8.06 8.44 C-17.3 8.44 -26.54 8.44 -36.06 8.44 C-36.06 5.44 -36.06 5.44 -35.06 4.44 C-33.04 4.32 -31.01 4.26 -28.98 4.23 C-27.12 4.18 -27.12 4.18 -25.22 4.14 C-22.58 4.09 -19.95 4.04 -17.32 4.01 C-16.07 3.98 -14.83 3.95 -13.54 3.91 C-12.4 3.89 -11.25 3.87 -10.07 3.85 C-5.94 3.28 -4.07 0.58 0 0 Z " fill="#61F083" transform="translate(1099.0625,615.5625)"/>
<path d="M0 0 C0.28 0.84 0.28 0.84 0.57 1.7 C4.25 10.68 11.21 16.29 18.36 22.53 C21.58 25.41 21.58 25.41 23 27 C23 27.66 23 28.32 23 29 C23.66 29.33 24.32 29.66 25 30 C20.45 29.49 18.09 27.8 14.62 24.88 C13.66 24.07 12.7 23.26 11.71 22.42 C9.45 20.4 7.37 18.34 5.31 16.12 C1.92 12.58 -1.39 11.54 -6 10 C-7.73 8.42 -7.73 8.42 -9 7 C-8.19 4.06 -8.19 4.06 -7 1 C-4 0 -4 0 0 0 Z " fill="#61F083" transform="translate(1018,490)"/>
<path d="M0 0 C0.99 0 1.98 0 3 0 C3.33 1.98 3.66 3.96 4 6 C2.12 6.62 2.12 6.62 0 7 C-0.66 6.34 -1.32 5.68 -2 5 C-1.46 1.46 -1.46 1.46 0 0 Z " fill="#000100" transform="translate(1051,606)"/>
<path d="M0 0 C2.12 0.38 2.12 0.38 4 1 C4.33 2.32 4.66 3.64 5 5 C3.35 5.33 1.7 5.66 0 6 C-0.66 4.68 -1.32 3.36 -2 2 C-1.34 1.34 -0.68 0.68 0 0 Z " fill="#000100" transform="translate(1001,613)"/>
<path d="M0 0 C1.32 0 2.64 0 4 0 C4.33 1.98 4.66 3.96 5 6 C2.03 5.5 2.03 5.5 -1 5 C-0.67 3.35 -0.34 1.7 0 0 Z " fill="#000100" transform="translate(1043,498)"/>
<path d="M0 0 C0.99 0.66 1.98 1.32 3 2 C3 3.32 3 4.64 3 6 C0.03 5.5 0.03 5.5 -3 5 C-2.62 3.06 -2.62 3.06 -2 1 C-1.34 0.67 -0.68 0.34 0 0 Z " fill="#000100" transform="translate(998,541)"/>
</svg>
